<svg width="20" height="20" viewBox="0 0 20 20" fill="none" xmlns="http://www.w3.org/2000/svg">
<path d="M8 9.5C7.72386 9.5 7.5 9.72386 7.5 10C7.5 10.2761 7.72386 10.5 8 10.5V9.5ZM11 10.5C11.2761 10.5 11.5 10.2761 11.5 10C11.5 9.72386 11.2761 9.5 11 9.5V10.5ZM8 13.5C7.72386 13.5 7.5 13.7239 7.5 14C7.5 14.2761 7.72386 14.5 8 14.5V13.5ZM11 14.5C11.2761 14.5 11.5 14.2761 11.5 14C11.5 13.7239 11.2761 13.5 11 13.5V14.5ZM5 9.5C4.72386 9.5 4.5 9.72386 4.5 10C4.5 10.2761 4.72386 10.5 5 10.5V9.5ZM5.01 10.5C5.28614 10.5 5.51 10.2761 5.51 10C5.51 9.72386 5.28614 9.5 5.01 9.5V10.5ZM5 13.5C4.72386 13.5 4.5 13.7239 4.5 14C4.5 14.2761 4.72386 14.5 5 14.5V13.5ZM5.01 14.5C5.28614 14.5 5.51 14.2761 5.51 14C5.51 13.7239 5.28614 13.5 5.01 13.5V14.5ZM14.5 5V17H15.5V5H14.5ZM13 18.5H3V19.5H13V18.5ZM1.5 17V5H0.5V17H1.5ZM3 3.5H5V2.5H3V3.5ZM11 3.5H13V2.5H11V3.5ZM3 18.5C2.17157 18.5 1.5 17.8284 1.5 17H0.5C0.5 18.3807 1.61929 19.5 3 19.5V18.5ZM14.5 17C14.5 17.8284 13.8284 18.5 13 18.5V19.5C14.3807 19.5 15.5 18.3807 15.5 17H14.5ZM15.5 5C15.5 3.61929 14.3807 2.5 13 2.5V3.5C13.8284 3.5 14.5 4.17157 14.5 5H15.5ZM1.5 5C1.5 4.17157 2.17157 3.5 3 3.5V2.5C1.61929 2.5 0.5 3.61929 0.5 5H1.5ZM8 10.5H11V9.5H8V10.5ZM8 14.5H11V13.5H8V14.5ZM7 1.5H9V0.5H7V1.5ZM9 4.5H7V5.5H9V4.5ZM7 4.5C6.17157 4.5 5.5 3.82843 5.5 3H4.5C4.5 4.38071 5.61929 5.5 7 5.5V4.5ZM10.5 3C10.5 3.82843 9.82843 4.5 9 4.5V5.5C10.3807 5.5 11.5 4.38071 11.5 3H10.5ZM9 1.5C9.82843 1.5 10.5 2.17157 10.5 3H11.5C11.5 1.61929 10.3807 0.5 9 0.5V1.5ZM7 0.5C5.61929 0.5 4.5 1.61929 4.5 3H5.5C5.5 2.17157 6.17157 1.5 7 1.5V0.5ZM5 10.5H5.01V9.5H5V10.5ZM5 14.5H5.01V13.5H5V14.5Z" fill="#111827"/>
</svg>
