<svg width="22" height="18" viewBox="0 0 22 18" fill="none" xmlns="http://www.w3.org/2000/svg">
<path d="M14 4C14 5.65685 12.6568 7 11 7C9.34313 7 7.99998 5.65685 7.99998 4C7.99998 2.34315 9.34313 1 11 1C12.6568 1 14 2.34315 14 4Z" fill="white"/>
<path d="M20 7C20 8.10457 19.1046 9 18 9C16.8954 9 16 8.10457 16 7C16 5.89543 16.8954 5 18 5C19.1046 5 20 5.89543 20 7Z" fill="white"/>
<path d="M5.99998 7C5.99998 8.10457 5.10455 9 3.99998 9C2.89542 9 1.99998 8.10457 1.99998 7C1.99998 5.89543 2.89542 5 3.99998 5C5.10455 5 5.99998 5.89543 5.99998 7Z" fill="white"/>
<path d="M11 10C8.8948 10 7.09349 11.301 6.35623 13.1429C6.12641 13.717 5.99998 14.3438 5.99998 15V17H16V15C16 14.3438 15.8736 13.717 15.6437 13.1429C14.9065 11.301 13.1052 10 11 10Z" fill="white"/>
<path d="M16 17H21V15C21 13.3431 19.6568 12 18 12C17.0444 12 16.1931 12.4468 15.6437 13.1429M16 17H5.99998M16 17V15C16 14.3438 15.8736 13.717 15.6437 13.1429M5.99998 17H0.999985V15C0.999985 13.3431 2.34313 12 3.99998 12C4.95559 12 5.80684 12.4468 6.35623 13.1429M5.99998 17V15C5.99998 14.3438 6.12641 13.717 6.35623 13.1429M6.35623 13.1429C7.09349 11.301 8.8948 10 11 10C13.1052 10 14.9065 11.301 15.6437 13.1429M14 4C14 5.65685 12.6568 7 11 7C9.34313 7 7.99998 5.65685 7.99998 4C7.99998 2.34315 9.34313 1 11 1C12.6568 1 14 2.34315 14 4ZM20 7C20 8.10457 19.1046 9 18 9C16.8954 9 16 8.10457 16 7C16 5.89543 16.8954 5 18 5C19.1046 5 20 5.89543 20 7ZM5.99998 7C5.99998 8.10457 5.10455 9 3.99998 9C2.89542 9 1.99998 8.10457 1.99998 7C1.99998 5.89543 2.89542 5 3.99998 5C5.10455 5 5.99998 5.89543 5.99998 7Z" stroke="#111827" stroke-linecap="round" stroke-linejoin="round"/>
</svg>
