<svg width="375" height="263" viewBox="0 0 375 263" fill="none" xmlns="http://www.w3.org/2000/svg">
<mask id="path-1-inside-1_1:212" fill="white">
<path d="M300.034 0H329.381C337.785 0.0039135 346.09 1.8118 353.73 5.30084C361.37 8.78987 368.168 13.8782 373.66 20.2198L420 73.8087V135C411.199 133.832 403.115 129.541 397.23 122.914L297.048 6.76945C296.523 6.19083 296.177 5.47294 296.052 4.70249C295.927 3.93203 296.029 3.142 296.345 2.4279C296.66 1.7138 297.177 1.10622 297.832 0.678497C298.486 0.250779 299.251 0.0212418 300.034 0.0176844"/>
</mask>
<path d="M329.381 0V-1L329.382 -1L329.381 0ZM373.66 20.2198L374.416 19.5652L374.416 19.5657L373.66 20.2198ZM420 73.8087L420.756 73.1546L421 73.4363V73.8087H420ZM420 135H421V136.141L419.868 135.991L420 135ZM397.23 122.914L396.482 123.578L396.477 123.573L396.473 123.567L397.23 122.914ZM297.048 6.76945L297.788 6.09727L297.797 6.10668L297.805 6.1163L297.048 6.76945ZM300.034 -1H329.381V1H300.034V-1ZM329.382 -1C337.929 -0.99602 346.375 0.842648 354.145 4.39119L353.315 6.21048C345.805 2.78096 337.642 1.00385 329.381 1L329.382 -1ZM354.145 4.39119C361.916 7.93974 368.83 13.115 374.416 19.5652L372.904 20.8745C367.506 14.6414 360.825 9.64 353.315 6.21048L354.145 4.39119ZM374.416 19.5657L420.756 73.1546L419.244 74.4628L372.903 20.8739L374.416 19.5657ZM421 73.8087V135H419V73.8087H421ZM419.868 135.991C410.83 134.792 402.527 130.385 396.482 123.578L397.978 122.25C403.703 128.697 411.568 132.872 420.132 134.009L419.868 135.991ZM396.473 123.567L296.291 7.42261L297.805 6.1163L397.987 122.261L396.473 123.567ZM296.308 7.44164C295.652 6.71995 295.221 5.82419 295.065 4.86245L297.039 4.54252C297.133 5.12168 297.393 5.66171 297.788 6.09727L296.308 7.44164ZM295.065 4.86245C294.909 3.9007 295.036 2.91458 295.43 2.02341L297.259 2.8324C297.022 3.36943 296.945 3.96337 297.039 4.54252L295.065 4.86245ZM295.43 2.02341C295.824 1.13225 296.468 0.374493 297.285 -0.158715L298.379 1.51571C297.885 1.83794 297.497 2.29536 297.259 2.8324L295.43 2.02341ZM297.285 -0.158715C298.101 -0.691896 299.054 -0.977873 300.03 -0.982305L300.039 1.01767C299.449 1.02036 298.872 1.19345 298.379 1.51571L297.285 -0.158715Z" fill="url(#paint0_linear_1:212)" mask="url(#path-1-inside-1_1:212)"/>
<path d="M338 77.4761V129.693C338.017 137.094 340.67 144.245 345.482 149.854L386 197V123.939L344.091 75.2118C343.63 74.6731 343.016 74.2889 342.331 74.1109C341.646 73.933 340.923 73.9698 340.26 74.2165C339.596 74.4631 339.024 74.9077 338.62 75.4905C338.216 76.0733 338 76.7662 338 77.4761Z" fill="url(#paint1_linear_1:212)"/>
<mask id="path-4-inside-2_1:212" fill="white">
<path d="M112.356 197H85.8491C78.2585 197.004 70.7578 198.624 63.8567 201.751C56.9557 204.878 50.8162 209.439 45.8558 215.123L4 263.154V318C11.9491 316.953 19.2507 313.107 24.5666 307.167L115.053 203.067C115.528 202.549 115.84 201.905 115.953 201.215C116.066 200.524 115.974 199.816 115.689 199.176C115.404 198.536 114.937 197.991 114.346 197.608C113.754 197.225 113.063 197.019 112.356 197.016"/>
</mask>
<path d="M85.8491 197V196L85.8486 196L85.8491 197ZM45.8558 215.123L45.1023 214.465L45.1018 214.466L45.8558 215.123ZM4 263.154L3.24609 262.498L3 262.78V263.154H4ZM4 318H3V319.14L4.13057 318.991L4 318ZM24.5666 307.167L25.3118 307.834L25.3166 307.829L25.3214 307.824L24.5666 307.167ZM115.053 203.067L114.316 202.392L114.307 202.402L114.299 202.411L115.053 203.067ZM112.356 196H85.8491V198H112.356V196ZM85.8486 196C78.1161 196.004 70.4748 197.654 63.444 200.84L64.2695 202.662C71.0407 199.594 78.4009 198.003 85.8495 198L85.8486 196ZM63.444 200.84C56.4131 204.026 50.1573 208.673 45.1023 214.465L46.6092 215.78C51.4751 210.205 57.4982 205.73 64.2695 202.662L63.444 200.84ZM45.1018 214.466L3.24609 262.498L4.75391 263.811L46.6097 215.78L45.1018 214.466ZM3 263.154V318H5V263.154H3ZM4.13057 318.991C12.3153 317.914 19.8354 313.954 25.3118 307.834L23.8215 306.501C18.666 312.261 11.583 315.993 3.86943 317.009L4.13057 318.991ZM25.3214 307.824L115.808 203.723L114.299 202.411L23.8119 306.511L25.3214 307.824ZM115.791 203.742C116.396 203.081 116.796 202.259 116.94 201.376L114.966 201.054C114.885 201.551 114.659 202.017 114.316 202.392L115.791 203.742ZM116.94 201.376C117.084 200.493 116.967 199.587 116.602 198.769L114.775 199.583C114.981 200.045 115.048 200.556 114.966 201.054L116.94 201.376ZM116.602 198.769C116.238 197.951 115.642 197.257 114.89 196.769L113.802 198.447C114.232 198.726 114.569 199.121 114.775 199.583L116.602 198.769ZM114.89 196.769C114.137 196.281 113.259 196.02 112.361 196.016L112.352 198.016C112.868 198.018 113.371 198.168 113.802 198.447L114.89 196.769Z" fill="url(#paint2_linear_1:212)" mask="url(#path-4-inside-2_1:212)"/>
<path d="M37 149.533V202.599C36.9827 210.12 34.2183 217.387 29.2061 223.088L-13 271V196.752L30.6554 147.231C31.1353 146.684 31.7751 146.294 32.4886 146.113C33.2021 145.932 33.9551 145.969 34.6463 146.22C35.3374 146.471 35.9335 146.922 36.3543 147.515C36.7751 148.107 37.0005 148.811 37 149.533Z" fill="url(#paint3_linear_1:212)"/>
<defs>
<linearGradient id="paint0_linear_1:212" x1="451.744" y1="153.621" x2="374.964" y2="-27.3122" gradientUnits="userSpaceOnUse">
<stop stop-color="#1D4289"/>
<stop offset="0.811711" stop-color="#00B74F"/>
</linearGradient>
<linearGradient id="paint1_linear_1:212" x1="390.174" y1="185.754" x2="327.89" y2="125.158" gradientUnits="userSpaceOnUse">
<stop stop-color="#1D4289"/>
<stop offset="1" stop-color="#00B74F"/>
</linearGradient>
<linearGradient id="paint2_linear_1:212" x1="12.4384" y1="286.601" x2="23.8995" y2="168.591" gradientUnits="userSpaceOnUse">
<stop stop-color="#1D4289"/>
<stop offset="0.811711" stop-color="#00B74F"/>
</linearGradient>
<linearGradient id="paint3_linear_1:212" x1="-8.38462" y1="235.177" x2="65.9702" y2="183.362" gradientUnits="userSpaceOnUse">
<stop stop-color="#1D4289"/>
<stop offset="0.811711" stop-color="#00B74F"/>
</linearGradient>
</defs>
</svg>
